<svg xmlns="http://www.w3.org/2000/svg" viewBox="0 0 64 64"><g id="_29-Blueprint" data-name="29-Blueprint"><path d="M1,47H7a2.006,2.006,0,0,1,2,2v6Z" style="fill:#4a98f7"/><path d="M5,9H59a4,4,0,0,1,4,4V51a4,4,0,0,1-4,4H9V49a2.006,2.006,0,0,0-2-2H1V13A4,4,0,0,1,5,9Z" style="fill:#65b1fc"/><path d="M19,17H32a0,0,0,0,1,0,0V32a0,0,0,0,1,0,0H17a0,0,0,0,1,0,0V19A2,2,0,0,1,19,17Z" style="fill:#a3d4ff"/><path d="M32,17H47a0,0,0,0,1,0,0V32a0,0,0,0,1,0,0H34a2,2,0,0,1-2-2V17a0,0,0,0,1,0,0Z" transform="translate(79 49) rotate(-180)" style="fill:#bfe1ff"/><path d="M34,32H47a0,0,0,0,1,0,0V47a0,0,0,0,1,0,0H32a0,0,0,0,1,0,0V34A2,2,0,0,1,34,32Z" transform="translate(79 79) rotate(180)" style="fill:#a3d4ff"/><path d="M17,32H32a0,0,0,0,1,0,0V47a0,0,0,0,1,0,0H19a2,2,0,0,1-2-2V32a0,0,0,0,1,0,0Z" style="fill:#bfe1ff"/><rect x="31" y="17" width="2" height="19" style="fill:#f2f6fc"/><rect x="28" y="31" width="11" height="2" style="fill:#f2f6fc"/><path d="M45,48H19a3,3,0,0,1-3-3V19a3,3,0,0,1,3-3h1.586l4.707-4.707,1.414,1.414-5,5A1,1,0,0,1,21,18H19a1,1,0,0,0-1,1V45a1,1,0,0,0,1,1H45a1,1,0,0,0,1-1V19a1,1,0,0,0-1-1H28V16H45a3,3,0,0,1,3,3V45A3,3,0,0,1,45,48Z" style="fill:#f2f6fc"/><path d="M21,33H17V31h3.586l4.707-4.707,1.414,1.414-5,5A1,1,0,0,1,21,33Z" style="fill:#f2f6fc"/><path d="M33,47H31V43a1,1,0,0,1,.293-.707l5-5,1.414,1.414L33,43.414Z" style="fill:#f2f6fc"/><path d="M51,29H41V27h9.586L54,23.586V22h2v2a1,1,0,0,1-.293.707l-4,4A1,1,0,0,1,51,29Z" style="fill:#f2f6fc"/><rect x="54" y="14" width="6" height="2" style="fill:#f2f6fc"/><rect x="50" y="18" width="10" height="2" style="fill:#f2f6fc"/><rect x="50" y="14" width="2" height="2" style="fill:#f2f6fc"/><rect x="54" y="44" width="6" height="2" style="fill:#f2f6fc"/><rect x="50" y="48" width="10" height="2" style="fill:#f2f6fc"/><rect x="50" y="44" width="2" height="2" style="fill:#f2f6fc"/><rect x="8" y="14" width="6" height="2" style="fill:#f2f6fc"/><rect x="4" y="18" width="10" height="2" style="fill:#f2f6fc"/><rect x="4" y="14" width="2" height="2" style="fill:#f2f6fc"/><path d="M13.293,30.707l-5-5A1,1,0,0,1,8,25V22h2v2.586l4.707,4.707Z" style="fill:#f2f6fc"/><path d="M59,8H5a5.006,5.006,0,0,0-5,5V47c0,.021.011.04.012.062a1,1,0,0,0,.052.259c.011.031.019.063.033.093a1,1,0,0,0,.2.293l8,8A1.005,1.005,0,0,0,9,56H59a5.006,5.006,0,0,0,5-5V13A5.006,5.006,0,0,0,59,8ZM3.414,48H7a1,1,0,0,1,1,1v3.586ZM62,51a3,3,0,0,1-3,3H10V49a3,3,0,0,0-3-3H2V13a3,3,0,0,1,3-3H59a3,3,0,0,1,3,3Z"/><path d="M51,29a1,1,0,0,0,.707-.293l4-4A1,1,0,0,0,56,24V22H54v1.586L50.586,27H48V19a3,3,0,0,0-3-3H28v2h3V31H28v2h3v3h2V33h6V31H33V18H45a1,1,0,0,1,1,1v8H41v2h5V45a1,1,0,0,1-1,1H33V43.414l4.707-4.707-1.414-1.414-5,5A1,1,0,0,0,31,43v3H19a1,1,0,0,1-1-1V33h3a1,1,0,0,0,.707-.293l5-5-1.414-1.414L20.586,31H18V19a1,1,0,0,1,1-1h2a1,1,0,0,0,.707-.293l5-5-1.414-1.414L20.586,16H19a3,3,0,0,0-3,3V45a3,3,0,0,0,3,3H45a3,3,0,0,0,3-3V29Z"/><rect x="54" y="14" width="6" height="2"/><rect x="50" y="18" width="10" height="2"/><rect x="50" y="14" width="2" height="2"/><rect x="54" y="44" width="6" height="2"/><rect x="50" y="48" width="10" height="2"/><rect x="50" y="44" width="2" height="2"/><rect x="8" y="14" width="6" height="2"/><rect x="4" y="18" width="10" height="2"/><rect x="4" y="14" width="2" height="2"/><path d="M10,22H8v3a1,1,0,0,0,.293.707l5,5,1.414-1.414L10,24.586Z"/></g></svg>