<?xml version="1.0" encoding="utf-8"?>
<!-- Generator: Adobe Illustrator 27.5.0, SVG Export Plug-In . SVG Version: 6.00 Build 0)  -->
<svg version="1.1" xmlns="http://www.w3.org/2000/svg" xmlns:xlink="http://www.w3.org/1999/xlink" x="0px" y="0px"
	 viewBox="0 0 500 500" style="enable-background:new 0 0 500 500;" xml:space="preserve">
<g id="BACKGROUND">
	<rect style="fill:#1D0C3E;" width="500" height="500"/>
</g>
<g id="OBJECTS">
	<g>
		<defs>
			<rect id="SVGID_1_" width="500" height="500"/>
		</defs>
		<clipPath id="SVGID_00000021107602565163615960000012426413002898357166_">
			<use xlink:href="#SVGID_1_"  style="overflow:visible;"/>
		</clipPath>
		<g style="clip-path:url(#SVGID_00000021107602565163615960000012426413002898357166_);">
			<polygon style="fill:#8BF6F1;" points="44.473,292.528 42.62,299.445 40.766,306.363 35.702,301.299 30.638,296.235 
				37.556,294.381 			"/>
			<polygon style="fill:#8BF6F1;" points="206.417,73.257 204.564,80.174 202.71,87.092 197.646,82.028 192.582,76.964 199.5,75.11 
							"/>
			<polygon style="fill:#8BF6F1;" points="60.403,83.104 58.549,90.021 56.696,96.939 51.631,91.875 46.567,86.811 53.485,84.957 
							"/>
			<polygon style="fill:#8BF6F1;" points="456.708,29.662 454.854,36.58 453,43.497 447.936,38.433 442.872,33.369 449.79,31.515 
							"/>
			<polygon style="fill:#8BF6F1;" points="381.482,57.809 379.629,64.727 377.775,71.644 372.711,66.58 367.647,61.516 
				374.564,59.663 			"/>
			<polygon style="fill:#8BF6F1;" points="472.672,327.191 470.818,334.108 468.964,341.026 463.9,335.962 458.836,330.898 
				465.754,329.044 			"/>
			<circle style="fill:none;stroke:#8BF6F1;stroke-miterlimit:10;" cx="63.159" cy="325.048" r="78.72"/>
			<circle style="fill:none;stroke:#8BF6F1;stroke-miterlimit:10;" cx="207.892" cy="104.669" r="78.72"/>
			<circle style="fill:none;stroke:#8BF6F1;stroke-miterlimit:10;" cx="363.878" cy="349.019" r="39.36"/>
			
				<ellipse transform="matrix(0.7071 -0.7071 0.7071 0.7071 -36.6536 372.7986)" style="fill:none;stroke:#8BF6F1;stroke-miterlimit:10;" cx="431.681" cy="230.644" rx="78.72" ry="78.72"/>
			<g>
				<path style="fill:#8BF6F1;" d="M113.991,52.7c2.341,0,2.345-3.639,0-3.639C111.649,49.061,111.645,52.7,113.991,52.7
					L113.991,52.7z"/>
			</g>
			<g>
				<path style="fill:#8BF6F1;" d="M413.075,299.082c2.341,0,2.345-3.639,0-3.639C410.734,295.444,410.73,299.082,413.075,299.082
					L413.075,299.082z"/>
			</g>
			<g>
				<path style="fill:#8BF6F1;" d="M282.629,26.833c2.341,0,2.345-3.639,0-3.639C280.288,23.194,280.284,26.833,282.629,26.833
					L282.629,26.833z"/>
			</g>
			<g>
				<path style="fill:#8BF6F1;" d="M462.239,90.021c2.341,0,2.345-3.639,0-3.639C459.898,86.382,459.894,90.021,462.239,90.021
					L462.239,90.021z"/>
			</g>
			<g>
				<path style="fill:#8BF6F1;" d="M44.473,42.037c2.341,0,2.345-3.639,0-3.639C42.132,38.399,42.128,42.037,44.473,42.037
					L44.473,42.037z"/>
			</g>
			<g>
				<path style="fill:#8BF6F1;" d="M98.305,364.186c2.341,0,2.345-3.639,0-3.639C95.964,360.548,95.96,364.186,98.305,364.186
					L98.305,364.186z"/>
			</g>
			<g>
				<path style="fill:#8BF6F1;" d="M394.423,103.294c2.341,0,2.345-3.639,0-3.639C392.082,99.655,392.078,103.294,394.423,103.294
					L394.423,103.294z"/>
			</g>
			<g>
				<path style="fill:#8BF6F1;" d="M63.159,236.744c4.682,0,4.69-7.277,0-7.277C58.476,229.467,58.469,236.744,63.159,236.744
					L63.159,236.744z"/>
			</g>
			<g>
				<path style="fill:#8BF6F1;" d="M297.666,80.174c4.682,0,4.69-7.277,0-7.277C292.984,72.897,292.976,80.174,297.666,80.174
					L297.666,80.174z"/>
			</g>
			<g>
				<path style="fill:#8BF6F1;" d="M465.754,215.1c4.682,0,4.69-7.277,0-7.277C461.072,207.823,461.064,215.1,465.754,215.1
					L465.754,215.1z"/>
			</g>
			<g>
				<path style="fill:#8BF6F1;" d="M36.886,163.573c-0.204,0-0.407,0-0.611,0c-0.501-0.019-0.968,0.085-1.402,0.313
					c-0.451,0.147-0.841,0.397-1.171,0.752c-0.355,0.329-0.606,0.72-0.752,1.171c-0.228,0.434-0.332,0.901-0.313,1.402
					c0.043,0.322,0.087,0.645,0.13,0.967c0.173,0.616,0.485,1.152,0.936,1.605c0.245,0.19,0.491,0.379,0.736,0.569
					c0.568,0.329,1.18,0.495,1.836,0.497c0.204,0,0.407,0,0.611,0c0.501,0.019,0.968-0.086,1.402-0.313
					c0.451-0.147,0.842-0.398,1.171-0.752c0.355-0.329,0.606-0.72,0.752-1.171c0.228-0.434,0.332-0.901,0.313-1.402
					c-0.043-0.322-0.087-0.645-0.13-0.967c-0.173-0.616-0.485-1.152-0.936-1.606c-0.245-0.19-0.491-0.379-0.736-0.569
					C38.155,163.74,37.543,163.575,36.886,163.573L36.886,163.573z"/>
			</g>
		</g>
	</g>
	<rect y="381.524" style="fill:#281057;" width="500" height="118.476"/>
	<g>
		<ellipse style="fill:#1D0C3E;" cx="264.113" cy="419.371" rx="82.024" ry="17.188"/>
		<ellipse style="fill:#1D0C3E;" cx="292.551" cy="434.696" rx="67.086" ry="14.058"/>
	</g>
	<g>
		<g>
			<g>
				<rect x="217.27" y="343.99" style="fill:#8BF6F1;" width="65.461" height="73.519"/>
				<rect x="217.27" y="343.99" style="fill:#5BD4CE;" width="65.461" height="25.553"/>
				<path style="fill:#5BD4CE;" d="M311.398,420.229H188.602v-8.138c0-6.85,5.553-12.403,12.403-12.403h97.989
					c6.85,0,12.403,5.553,12.403,12.403V420.229z"/>
				<path style="fill:#8BF6F1;" d="M419.704,352.46H80.296c-6.615,0-11.977-5.362-11.977-11.977V127.227
					c0-6.615,5.362-11.977,11.977-11.977h339.408c6.615,0,11.977,5.362,11.977,11.977v213.256
					C431.681,347.097,426.319,352.46,419.704,352.46z"/>
				<path style="fill:#C7D2D7;" d="M77.937,338.012V129.697c0-2.667,2.162-4.829,4.829-4.829h334.468
					c2.667,0,4.829,2.162,4.829,4.829v208.314c0,2.668-2.163,4.83-4.83,4.83H82.766C80.099,342.842,77.937,340.68,77.937,338.012z"
					/>
				<g>
					<g style="opacity:0.68;">
						<path style="fill:#8BF6F1;" d="M146.409,208.036l12.606-12.606l-7.705-7.705c0.016-0.049,0.033-0.098,0.065-0.131
							l10.639-0.016v-17.803l-10.721,0c-0.033-0.098-0.082-0.18-0.115-0.246l7.426-7.426l-12.606-12.606l-7.426,7.426
							c-0.131-0.066-0.279-0.147-0.426-0.197v-10.229l-17.819,0.016v10.295c-0.197,0.066-0.361,0.164-0.541,0.246l-7.131-7.131
							l-12.606,12.606l7.278,7.278c-0.066,0.197-0.115,0.377-0.197,0.557H97.067V188.2h10.491c0.066,0.131,0.131,0.262,0.18,0.41
							l-7.246,7.246l12.606,12.606l7.59-7.59c0.066,0.033,0.148,0.049,0.246,0.082l-0.016,10.508h17.835l0-10.918
							c0.049-0.016,0.082-0.049,0.115-0.049L146.409,208.036z M118.476,189.61c-5.983-5.983-5.983-15.688,0.016-21.688
							c5.983-5.983,15.688-5.983,21.671,0c6,6,6,15.704,0.016,21.688C134.18,195.61,124.476,195.61,118.476,189.61z"/>
						<path style="fill:#8BF6F1;" d="M180.725,170.738h9.533v-5.826c0.025-0.012,0.05-0.025,0.074-0.025l4.029,4.017l6.732-6.732
							l-4.054-4.054c0.025-0.05,0.037-0.099,0.05-0.136h5.616v-9.533h-5.616c-0.025-0.074-0.05-0.161-0.087-0.236l3.868-3.868
							l-6.744-6.732l-3.893,3.893c-0.099-0.05-0.198-0.074-0.298-0.112v-5.393h-9.533v5.504c-0.099,0.049-0.186,0.099-0.285,0.136
							l-3.806-3.806l-6.744,6.744l3.967,3.967c-0.025,0.074-0.05,0.149-0.087,0.223h-5.479v9.533h5.74
							c0.012,0.037,0.037,0.074,0.062,0.124l-3.979,3.967l6.744,6.744l4.128-4.128c0.025,0.012,0.05,0.012,0.062,0.025V170.738z
							 M177.13,153.208c0-4.525,3.669-8.194,8.207-8.194c4.525,0,8.194,3.669,8.194,8.194c0,4.537-3.669,8.207-8.194,8.207
							C180.799,161.415,177.13,157.746,177.13,153.208z"/>
					</g>
					<g style="opacity:0.68;">
						<path style="fill:#8BF6F1;" d="M406.983,323.489l12.606-12.606l-7.705-7.705c0.016-0.049,0.033-0.098,0.065-0.131
							l10.639-0.016v-17.802l-10.721,0c-0.033-0.098-0.082-0.18-0.115-0.246l7.426-7.426l-12.606-12.606l-7.426,7.426
							c-0.131-0.066-0.279-0.147-0.426-0.197v-10.229l-17.819,0.016v10.295c-0.197,0.066-0.361,0.164-0.541,0.246l-7.131-7.131
							l-12.606,12.606l7.278,7.278c-0.066,0.197-0.115,0.377-0.197,0.557h-10.065v17.835h10.491c0.066,0.131,0.131,0.262,0.18,0.41
							l-7.246,7.246l12.606,12.606l7.59-7.59c0.066,0.033,0.148,0.049,0.246,0.082l-0.016,10.508h17.835l0-10.918
							c0.049-0.016,0.082-0.049,0.115-0.049L406.983,323.489z M379.05,305.064c-5.983-5.983-5.983-15.688,0.016-21.688
							c5.983-5.983,15.688-5.983,21.671,0c6,6,6,15.704,0.016,21.688C394.754,311.063,385.05,311.063,379.05,305.064z"/>
						<path style="fill:#8BF6F1;" d="M306.786,248.012h9.533v-5.826c0.025-0.013,0.05-0.025,0.074-0.025l4.029,4.017l6.732-6.732
							l-4.054-4.054c0.025-0.05,0.037-0.099,0.05-0.136h5.616v-9.533h-5.616c-0.025-0.074-0.05-0.161-0.087-0.236l3.868-3.868
							l-6.744-6.731l-3.893,3.893c-0.099-0.05-0.198-0.074-0.297-0.112v-5.393h-9.533v5.504c-0.099,0.049-0.186,0.099-0.285,0.136
							l-3.806-3.806l-6.744,6.744l3.967,3.967c-0.025,0.074-0.05,0.149-0.087,0.223h-5.479v9.533h5.74
							c0.012,0.037,0.037,0.074,0.062,0.124l-3.979,3.967l6.744,6.744l4.128-4.128c0.025,0.012,0.05,0.012,0.062,0.025V248.012z
							 M303.191,230.483c0-4.525,3.669-8.194,8.207-8.194c4.525,0,8.194,3.669,8.194,8.194c0,4.537-3.67,8.207-8.194,8.207
							C306.86,238.69,303.191,235.02,303.191,230.483z"/>
						<path style="fill:#8BF6F1;" d="M117.59,312.403l7.426-7.426l-12.606-12.606l-7.426,7.426
							c-0.131-0.066-0.279-0.148-0.426-0.197v-10.229l-17.819,0.016v10.295c-0.197,0.066-0.361,0.164-0.541,0.246l-7.131-7.131
							l-1.13,1.13v44.085c0,2.667,2.162,4.829,4.829,4.829h38.122l4.538-4.538l-7.705-7.705c0.016-0.049,0.033-0.098,0.065-0.131
							l10.639-0.016v-17.802l-10.721,0C117.672,312.551,117.623,312.469,117.59,312.403z M106.591,332.484c-6,6-15.704,6-21.704,0
							c-5.983-5.983-5.983-15.688,0.017-21.688c5.983-5.983,15.688-5.983,21.671,0C112.574,316.797,112.574,326.501,106.591,332.484
							z"/>
					</g>
				</g>
			</g>
			<g>
				<path style="fill:#5AA0F1;" d="M393.621,220.224H278.352c-3.413,0-6.18-2.767-6.18-6.18v-58.188c0-3.413,2.767-6.18,6.18-6.18
					h115.269c3.413,0,6.18,2.767,6.18,6.18v58.188C399.8,217.457,397.034,220.224,393.621,220.224z"/>
				
					<line style="fill:none;stroke:#FFFFFF;stroke-width:0.8956;stroke-linecap:round;stroke-miterlimit:10;" x1="277.597" y1="159.208" x2="394.376" y2="159.208"/>
				<path style="fill:#FFFFFF;" d="M392.708,154.359c0,0.781-0.633,1.414-1.414,1.414c-0.781,0-1.414-0.633-1.414-1.414
					c0-0.781,0.633-1.414,1.414-1.414C392.075,152.945,392.708,153.578,392.708,154.359z"/>
				<path style="fill:#FFFFFF;" d="M385.333,154.359c0,0.781-0.633,1.414-1.414,1.414c-0.781,0-1.414-0.633-1.414-1.414
					c0-0.781,0.633-1.414,1.414-1.414C384.7,152.945,385.333,153.578,385.333,154.359z"/>
				<path style="fill:#FFFFFF;" d="M377.959,154.359c0,0.781-0.633,1.414-1.414,1.414c-0.781,0-1.414-0.633-1.414-1.414
					c0-0.781,0.633-1.414,1.414-1.414C377.326,152.945,377.959,153.578,377.959,154.359z"/>
				<g>
					<g>
						<path style="fill:#FFFFFF;" d="M299.365,168.704H279.55c-1.079,0-1.953-0.874-1.953-1.953l0,0
							c0-1.079,0.874-1.953,1.953-1.953h19.815c1.079,0,1.953,0.874,1.953,1.953l0,0
							C301.318,167.829,300.444,168.704,299.365,168.704z"/>
						<path style="fill:#FFFFFF;" d="M299.365,177.728H279.55c-1.079,0-1.953-0.874-1.953-1.953l0,0
							c0-1.079,0.874-1.953,1.953-1.953h19.815c1.079,0,1.953,0.874,1.953,1.953l0,0
							C301.318,176.854,300.444,177.728,299.365,177.728z"/>
						<path style="fill:#FFFFFF;" d="M299.365,186.753H279.55c-1.079,0-1.953-0.874-1.953-1.953l0,0
							c0-1.079,0.874-1.953,1.953-1.953h19.815c1.079,0,1.953,0.874,1.953,1.953l0,0
							C301.318,185.878,300.444,186.753,299.365,186.753z"/>
						<path style="fill:#FFFFFF;" d="M299.365,195.777H279.55c-1.079,0-1.953-0.874-1.953-1.953l0,0
							c0-1.079,0.874-1.953,1.953-1.953h19.815c1.079,0,1.953,0.874,1.953,1.953l0,0
							C301.318,194.903,300.444,195.777,299.365,195.777z"/>
						<path style="fill:#FFFFFF;" d="M299.365,204.802H279.55c-1.079,0-1.953-0.874-1.953-1.953l0,0
							c0-1.079,0.874-1.953,1.953-1.953h19.815c1.079,0,1.953,0.874,1.953,1.953l0,0
							C301.318,203.927,300.444,204.802,299.365,204.802z"/>
						<path style="fill:#FFFFFF;" d="M299.365,213.826H279.55c-1.079,0-1.953-0.874-1.953-1.953l0,0
							c0-1.079,0.874-1.953,1.953-1.953h19.815c1.079,0,1.953,0.874,1.953,1.953l0,0
							C301.318,212.952,300.444,213.826,299.365,213.826z"/>
					</g>
					<g>
						<path style="fill:#8DC2FF;" d="M392.423,168.704h-85.396c-1.079,0-1.953-0.874-1.953-1.953l0,0
							c0-1.079,0.874-1.953,1.953-1.953h85.396c1.079,0,1.953,0.874,1.953,1.953l0,0
							C394.376,167.829,393.502,168.704,392.423,168.704z"/>
						<path style="fill:#8DC2FF;" d="M392.423,177.728h-85.396c-1.079,0-1.953-0.874-1.953-1.953l0,0
							c0-1.079,0.874-1.953,1.953-1.953h85.396c1.079,0,1.953,0.874,1.953,1.953l0,0
							C394.376,176.854,393.502,177.728,392.423,177.728z"/>
						<path style="fill:#8DC2FF;" d="M392.423,186.753h-85.396c-1.079,0-1.953-0.874-1.953-1.953l0,0
							c0-1.079,0.874-1.953,1.953-1.953h85.396c1.079,0,1.953,0.874,1.953,1.953l0,0
							C394.376,185.878,393.502,186.753,392.423,186.753z"/>
						<path style="fill:#8DC2FF;" d="M392.423,195.777h-85.396c-1.079,0-1.953-0.874-1.953-1.953l0,0
							c0-1.079,0.874-1.953,1.953-1.953h85.396c1.079,0,1.953,0.874,1.953,1.953l0,0
							C394.376,194.903,393.502,195.777,392.423,195.777z"/>
						<path style="fill:#8DC2FF;" d="M392.423,204.802h-85.396c-1.079,0-1.953-0.874-1.953-1.953l0,0
							c0-1.079,0.874-1.953,1.953-1.953h85.396c1.079,0,1.953,0.874,1.953,1.953l0,0
							C394.376,203.927,393.502,204.802,392.423,204.802z"/>
						<path style="fill:#8DC2FF;" d="M392.423,213.826h-85.396c-1.079,0-1.953-0.874-1.953-1.953l0,0
							c0-1.079,0.874-1.953,1.953-1.953h85.396c1.079,0,1.953,0.874,1.953,1.953l0,0
							C394.376,212.952,393.502,213.826,392.423,213.826z"/>
					</g>
				</g>
			</g>
			<path style="fill:#FFFFFF;" d="M258.554,188.095c-2.278-9.501-10.908-15.816-20.305-15.521c-0.073-0.366-0.118-0.732-0.205-1.098
				c-3.795-15.828-19.703-25.583-35.531-21.788c-10.311,2.472-18.014,10.096-21.103,19.478c-2.324-0.145-4.708,0.044-7.09,0.615
				c-12.843,3.08-20.763,15.969-17.725,28.812h46.182v-11.892h-5.9c-1.315,0-2.137-1.122-1.479-2.019l10.651-14.54
				c0.657-0.897,2.301-0.897,2.959,0l10.651,14.54c0.658,0.897-0.164,2.019-1.479,2.019h-5.9v11.892h45.975
				C259.242,195.288,259.416,191.692,258.554,188.095z"/>
			<g>
				<g>
					<path style="fill:#5AA0F1;" d="M177.864,230.002h-76.216c-4.204,0-7.611-3.408-7.611-7.611l0,0
						c0-4.203,3.407-7.611,7.611-7.611h76.216c4.203,0,7.611,3.408,7.611,7.611l0,0
						C185.475,226.594,182.068,230.002,177.864,230.002z"/>
					<g>
						<path style="fill:none;stroke:#FFFFFF;stroke-width:1.6716;stroke-miterlimit:10;" d="M176.747,221.866
							c0,2.235-1.812,4.047-4.047,4.047c-2.235,0-4.047-1.812-4.047-4.047c0-2.235,1.812-4.047,4.047-4.047
							C174.935,217.819,176.747,219.631,176.747,221.866z"/>
						
							<line style="fill:none;stroke:#FFFFFF;stroke-width:1.6716;stroke-linecap:round;stroke-miterlimit:10;" x1="175.562" y1="224.728" x2="177.797" y2="226.963"/>
					</g>
				</g>
				<g>
					<path style="fill:#FFFFFF;" d="M163.995,238.77h-16.098c-0.668,0-1.21-0.542-1.21-1.21l0,0c0-0.668,0.542-1.21,1.21-1.21
						h16.098c0.668,0,1.21,0.542,1.21,1.21l0,0C165.204,238.228,164.663,238.77,163.995,238.77z"/>
					<path style="fill:#FFFFFF;" d="M180.1,238.77h-11.65c-0.668,0-1.21-0.542-1.21-1.21l0,0c0-0.668,0.542-1.21,1.21-1.21h11.65
						c0.668,0,1.21,0.542,1.21,1.21l0,0C181.31,238.228,180.768,238.77,180.1,238.77z"/>
					<path style="fill:#FFFFFF;" d="M154.736,244.089h-6.84c-0.668,0-1.21-0.542-1.21-1.21l0,0c0-0.668,0.542-1.21,1.21-1.21h6.84
						c0.668,0,1.21,0.542,1.21,1.21l0,0C155.946,243.548,155.404,244.089,154.736,244.089z"/>
					<path style="fill:#FFFFFF;" d="M180.1,244.089h-21.304c-0.668,0-1.21-0.542-1.21-1.21l0,0c0-0.668,0.542-1.21,1.21-1.21H180.1
						c0.668,0,1.21,0.542,1.21,1.21l0,0C181.31,243.548,180.768,244.089,180.1,244.089z"/>
					<path style="fill:#FFFFFF;" d="M169.117,249.408h-21.221c-0.668,0-1.21-0.542-1.21-1.21l0,0c0-0.668,0.542-1.21,1.21-1.21
						h21.221c0.668,0,1.21,0.542,1.21,1.21l0,0C170.327,248.867,169.785,249.408,169.117,249.408z"/>
					<path style="fill:#FFFFFF;" d="M180.1,249.408h-6.84c-0.668,0-1.21-0.542-1.21-1.21l0,0c0-0.668,0.542-1.21,1.21-1.21h6.84
						c0.668,0,1.21,0.542,1.21,1.21l0,0C181.31,248.867,180.768,249.408,180.1,249.408z"/>
				</g>
				<g>
					<path style="fill:#FFFFFF;" d="M121.471,238.77h-16.099c-0.668,0-1.21-0.542-1.21-1.21l0,0c0-0.668,0.542-1.21,1.21-1.21
						h16.099c0.668,0,1.21,0.542,1.21,1.21l0,0C122.681,238.228,122.139,238.77,121.471,238.77z"/>
					<path style="fill:#FFFFFF;" d="M137.577,238.77h-11.65c-0.668,0-1.21-0.542-1.21-1.21l0,0c0-0.668,0.542-1.21,1.21-1.21h11.65
						c0.668,0,1.21,0.542,1.21,1.21l0,0C138.787,238.228,138.245,238.77,137.577,238.77z"/>
					<path style="fill:#FFFFFF;" d="M112.212,244.089h-6.84c-0.668,0-1.21-0.542-1.21-1.21l0,0c0-0.668,0.542-1.21,1.21-1.21h6.84
						c0.668,0,1.21,0.542,1.21,1.21l0,0C113.422,243.548,112.88,244.089,112.212,244.089z"/>
					<path style="fill:#FFFFFF;" d="M137.577,244.089h-21.304c-0.668,0-1.21-0.542-1.21-1.21l0,0c0-0.668,0.542-1.21,1.21-1.21
						h21.304c0.668,0,1.21,0.542,1.21,1.21l0,0C138.787,243.548,138.245,244.089,137.577,244.089z"/>
					<path style="fill:#FFFFFF;" d="M126.594,249.408h-21.221c-0.668,0-1.21-0.542-1.21-1.21l0,0c0-0.668,0.542-1.21,1.21-1.21
						h21.221c0.668,0,1.21,0.542,1.21,1.21l0,0C127.803,248.867,127.262,249.408,126.594,249.408z"/>
					<path style="fill:#FFFFFF;" d="M137.577,249.408h-6.84c-0.668,0-1.21-0.542-1.21-1.21l0,0c0-0.668,0.542-1.21,1.21-1.21h6.84
						c0.668,0,1.21,0.542,1.21,1.21l0,0C138.787,248.867,138.245,249.408,137.577,249.408z"/>
				</g>
			</g>
			<g>
				<g>
					
						<rect x="105.008" y="293.96" transform="matrix(6.123234e-17 -1 1 6.123234e-17 -168.526 422.8283)" style="fill:#5AA0F1;" width="44.286" height="3.435"/>
				</g>
				<g>
					
						<rect x="124.176" y="306.121" transform="matrix(6.123234e-17 -1 1 6.123234e-17 -173.6822 441.9961)" style="fill:#5AA0F1;" width="19.962" height="3.435"/>
				</g>
				<g>
					
						<rect x="113.183" y="309.14" transform="matrix(6.123234e-17 -1 1 6.123234e-17 -190.712 431.0032)" style="fill:#5AA0F1;" width="13.925" height="3.435"/>
				</g>
				
					<rect x="113.959" y="288.899" transform="matrix(6.123234e-17 -1 1 6.123234e-17 -149.4544 431.7794)" style="fill:#5AA0F1;" width="54.406" height="3.435"/>
				
					<rect x="134.814" y="302.748" transform="matrix(6.123234e-17 -1 1 6.123234e-17 -156.2976 452.6339)" style="fill:#5AA0F1;" width="26.708" height="3.435"/>
				
					<rect x="136.685" y="297.614" transform="matrix(6.123234e-17 -1 1 6.123234e-17 -144.158 454.5055)" style="fill:#5AA0F1;" width="36.977" height="3.435"/>
				
					<rect x="158.467" y="312.39" transform="matrix(6.123234e-17 -1 1 6.123234e-17 -151.9284 476.2873)" style="fill:#5AA0F1;" width="7.424" height="3.435"/>
			</g>
			<g>
				<path style="fill:#3A66B4;" d="M199.477,318.275h96.524c3.461,0,6.268-2.806,6.268-6.268v-56.371
					c0-3.462-2.806-6.268-6.268-6.268h-96.524c-3.462,0-6.268,2.806-6.268,6.268v56.371
					C193.209,315.469,196.016,318.275,199.477,318.275z"/>
				<g>
					<path style="fill:#8BF6F1;" d="M236.053,309.324h56.12c0.44,0,0.797,0.357,0.797,0.797v0.711c0,0.44-0.357,0.797-0.797,0.797
						h-56.12c-0.44,0-0.797-0.357-0.797-0.797v-0.711C235.256,309.681,235.613,309.324,236.053,309.324z"/>
					<path style="fill:#8BF6F1;" d="M236.053,304.879h56.12c0.44,0,0.797,0.357,0.797,0.797v0.711c0,0.44-0.357,0.797-0.797,0.797
						h-56.12c-0.44,0-0.797-0.357-0.797-0.797v-0.711C235.256,305.236,235.613,304.879,236.053,304.879z"/>
					<path style="fill:#8BF6F1;" d="M236.053,300.433h56.12c0.44,0,0.797,0.357,0.797,0.797v0.711c0,0.44-0.357,0.797-0.797,0.797
						h-56.12c-0.44,0-0.797-0.357-0.797-0.797v-0.711C235.256,300.79,235.613,300.433,236.053,300.433z"/>
					<path style="fill:#8BF6F1;" d="M278.135,295.988h14.038c0.44,0,0.797,0.357,0.797,0.797v0.711c0,0.44-0.357,0.797-0.797,0.797
						h-14.038c-0.44,0-0.797-0.357-0.797-0.797v-0.711C277.338,296.345,277.695,295.988,278.135,295.988z"/>
					<path style="fill:#8BF6F1;" d="M278.135,291.543h14.038c0.44,0,0.797,0.357,0.797,0.797v0.711c0,0.44-0.357,0.797-0.797,0.797
						h-14.038c-0.44,0-0.797-0.357-0.797-0.797v-0.711C277.338,291.9,277.695,291.543,278.135,291.543z"/>
				</g>
				<g>
					<path style="fill:#FFFFFF;" d="M271.557,268.184c0-5.907,4.806-10.712,10.712-10.712c5.907,0,10.713,4.806,10.713,10.712
						c0,5.907-4.806,10.713-10.713,10.713C276.363,278.896,271.557,274.091,271.557,268.184z M271.809,268.184
						c0,5.768,4.693,10.46,10.46,10.46c5.768,0,10.461-4.693,10.461-10.46c0-5.768-4.693-10.46-10.461-10.46
						C276.502,257.723,271.809,262.416,271.809,268.184z"/>
					<path style="fill:#FFFFFF;" d="M282.27,258.64v1.466c-4.454,0-8.077,3.623-8.077,8.077h-1.466
						C272.727,262.921,277.008,258.64,282.27,258.64z"/>
					<g>
						<path style="fill:#FFFFFF;" d="M282.373,277.153c0.072-0.001,0.144-0.003,0.216-0.005l0.04,1.146
							c-0.081,0.003-0.162,0.005-0.243,0.006L282.373,277.153z M281.655,278.282l0.071-1.145c0.071,0.004,0.143,0.008,0.215,0.01
							l-0.04,1.146C281.818,278.291,281.736,278.287,281.655,278.282z M283.019,277.122c0.073-0.006,0.145-0.013,0.217-0.021
							l0.121,1.141c-0.08,0.008-0.16,0.016-0.241,0.023L283.019,277.122z M280.929,278.212l0.152-1.137
							c0.071,0.01,0.142,0.018,0.214,0.026l-0.124,1.14C281.09,278.232,281.009,278.222,280.929,278.212z M283.663,277.045
							c0.071-0.011,0.142-0.023,0.213-0.036l0.205,1.128c-0.08,0.014-0.16,0.028-0.24,0.041L283.663,277.045z M280.209,278.089
							l0.232-1.123c0.071,0.015,0.142,0.029,0.213,0.042l-0.207,1.128C280.367,278.121,280.288,278.105,280.209,278.089z
							 M284.297,276.922c0.071-0.017,0.141-0.034,0.211-0.052l0.285,1.111c-0.078,0.02-0.157,0.039-0.236,0.058L284.297,276.922z
							 M279.498,277.914l0.316-1.102c0.069,0.02,0.138,0.038,0.208,0.057l-0.288,1.11
							C279.655,277.958,279.577,277.936,279.498,277.914z M284.922,276.753c0.069-0.021,0.138-0.044,0.207-0.067l0.366,1.087
							c-0.077,0.026-0.153,0.051-0.231,0.075L284.922,276.753z M278.804,277.689l0.392-1.078c0.068,0.025,0.137,0.049,0.206,0.072
							l-0.368,1.086C278.957,277.743,278.88,277.716,278.804,277.689z M285.533,276.539c0.067-0.026,0.134-0.053,0.2-0.081
							l0.444,1.057c-0.074,0.031-0.149,0.061-0.224,0.091L285.533,276.539z M278.125,277.412l0.471-1.046
							c0.066,0.03,0.132,0.058,0.198,0.086l-0.445,1.057C278.274,277.478,278.199,277.445,278.125,277.412z M286.126,276.281
							c0.065-0.031,0.129-0.063,0.194-0.096l0.518,1.023c-0.072,0.036-0.144,0.072-0.217,0.107L286.126,276.281z M277.468,277.086
							l0.547-1.008c0.063,0.035,0.127,0.068,0.191,0.101l-0.522,1.021C277.612,277.163,277.54,277.125,277.468,277.086z
							 M286.699,275.981c0.062-0.035,0.124-0.072,0.185-0.109l0.592,0.983c-0.07,0.042-0.14,0.083-0.21,0.123L286.699,275.981z
							 M276.839,276.716l0.617-0.966c0.06,0.038,0.122,0.077,0.183,0.114l-0.593,0.982
							C276.977,276.803,276.908,276.76,276.839,276.716z M287.249,275.64c0.059-0.04,0.118-0.08,0.177-0.122l0.662,0.937
							c-0.067,0.047-0.134,0.093-0.201,0.138L287.249,275.64z M276.237,276.3l0.685-0.919c0.058,0.043,0.117,0.086,0.175,0.127
							l-0.664,0.935C276.368,276.397,276.303,276.349,276.237,276.3z M287.773,275.262c0.057-0.044,0.113-0.09,0.169-0.135
							l0.726,0.887c-0.063,0.051-0.126,0.102-0.19,0.151L287.773,275.262z M275.667,275.843l0.75-0.868
							c0.054,0.047,0.109,0.093,0.165,0.139L275.854,276C275.791,275.949,275.729,275.896,275.667,275.843z M288.27,274.845
							c0.053-0.048,0.106-0.097,0.158-0.146l0.789,0.832c-0.059,0.056-0.119,0.111-0.179,0.166L288.27,274.845z M275.133,275.348
							l0.808-0.814c0.052,0.051,0.104,0.102,0.156,0.152l-0.791,0.831C275.248,275.461,275.19,275.405,275.133,275.348z
							 M288.735,274.394c0.05-0.052,0.099-0.104,0.148-0.158l0.845,0.775c-0.055,0.06-0.11,0.119-0.167,0.178L288.735,274.394z
							 M274.635,274.814l0.864-0.754c0.048,0.055,0.096,0.109,0.145,0.162l-0.848,0.772
							C274.741,274.935,274.688,274.875,274.635,274.814z M289.167,273.912c0.046-0.056,0.092-0.112,0.136-0.168l0.9,0.711
							c-0.05,0.063-0.102,0.126-0.153,0.189L289.167,273.912z M274.175,274.246l0.917-0.689c0.043,0.058,0.087,0.114,0.132,0.171
							l-0.899,0.711C274.274,274.376,274.224,274.311,274.175,274.246z M289.563,273.398c0.042-0.059,0.084-0.118,0.124-0.178
							l0.948,0.646c-0.046,0.067-0.092,0.133-0.139,0.199L289.563,273.398z M273.759,273.648l0.964-0.622
							c0.039,0.06,0.079,0.12,0.119,0.18l-0.948,0.645C273.847,273.783,273.803,273.716,273.759,273.648z M289.922,272.859
							c0.038-0.062,0.075-0.124,0.111-0.187l0.992,0.576c-0.041,0.07-0.082,0.14-0.124,0.209L289.922,272.859z M273.386,273.021
							l1.006-0.551c0.035,0.063,0.07,0.126,0.106,0.188l-0.992,0.575C273.465,273.163,273.425,273.092,273.386,273.021z
							 M290.242,272.293c0.033-0.064,0.065-0.128,0.097-0.193l1.031,0.502c-0.036,0.074-0.072,0.147-0.11,0.219L290.242,272.293z
							 M273.059,272.367l1.044-0.474c0.029,0.065,0.06,0.13,0.091,0.194l-1.031,0.501
							C273.128,272.515,273.093,272.441,273.059,272.367z M290.518,271.707c0.028-0.067,0.056-0.134,0.083-0.201l1.064,0.427
							c-0.03,0.075-0.061,0.15-0.093,0.225L290.518,271.707z M272.781,271.694l1.075-0.399c0.025,0.067,0.051,0.134,0.078,0.201
							l-1.065,0.426C272.839,271.846,272.809,271.77,272.781,271.694z M290.752,271.101c0.024-0.068,0.046-0.137,0.068-0.205
							l1.093,0.347c-0.025,0.078-0.051,0.155-0.077,0.232L290.752,271.101z M272.552,271l1.101-0.321
							c0.02,0.07,0.041,0.139,0.063,0.207l-1.094,0.346C272.598,271.156,272.575,271.078,272.552,271z M290.941,270.482
							c0.018-0.07,0.036-0.14,0.053-0.211l1.115,0.268c-0.019,0.079-0.039,0.157-0.059,0.235L290.941,270.482z M272.374,270.291
							l1.122-0.238c0.015,0.07,0.031,0.141,0.047,0.21l-1.116,0.266C272.409,270.45,272.391,270.37,272.374,270.291z
							 M291.084,269.849c0.013-0.07,0.026-0.141,0.037-0.211l1.132,0.184c-0.013,0.081-0.027,0.161-0.042,0.242L291.084,269.849z
							 M272.248,269.57l1.137-0.154c0.01,0.071,0.02,0.141,0.032,0.212l-1.132,0.185
							C272.271,269.732,272.259,269.651,272.248,269.57z M291.181,269.211c0.008-0.072,0.016-0.144,0.022-0.217l1.142,0.104
							c-0.007,0.081-0.016,0.161-0.024,0.241L291.181,269.211z M272.175,268.846l1.144-0.077c0.005,0.073,0.01,0.145,0.017,0.217
							l-1.142,0.101C272.186,269.007,272.18,268.927,272.175,268.846z M291.231,268.563c0.003-0.071,0.005-0.143,0.006-0.215
							l1.147,0.02c-0.001,0.082-0.004,0.164-0.007,0.245L291.231,268.563z M272.153,268.183l0-0.071l1.147,0.012l0,0.059
							c0,0.052,0,0.104,0.001,0.156l-1.147,0.019C272.154,268.3,272.153,268.242,272.153,268.183z M291.226,267.7l1.145-0.06
							c0.004,0.08,0.008,0.161,0.01,0.241l-1.146,0.037C291.233,267.845,291.23,267.772,291.226,267.7z M272.168,267.628
							c0.004-0.081,0.01-0.161,0.016-0.241l1.144,0.087c-0.006,0.072-0.011,0.145-0.015,0.217L272.168,267.628z M291.169,267.055
							l1.138-0.145c0.01,0.081,0.02,0.162,0.028,0.243l-1.141,0.114C291.186,267.197,291.178,267.126,291.169,267.055z
							 M272.234,266.901c0.01-0.081,0.022-0.162,0.034-0.243l1.133,0.175c-0.011,0.071-0.02,0.141-0.03,0.212L272.234,266.901z
							 M291.064,266.416l1.124-0.225c0.016,0.08,0.031,0.16,0.045,0.24l-1.13,0.198
							C291.092,266.557,291.078,266.486,291.064,266.416z M272.353,266.18c0.016-0.079,0.033-0.159,0.051-0.237l1.119,0.252
							c-0.016,0.07-0.031,0.141-0.045,0.212L272.353,266.18z M290.914,265.786l1.105-0.306c0.022,0.078,0.042,0.156,0.062,0.235
							l-1.112,0.281C290.952,265.925,290.933,265.855,290.914,265.786z M272.523,265.469c0.022-0.079,0.045-0.157,0.069-0.235
							l1.096,0.336c-0.021,0.068-0.041,0.137-0.06,0.206L272.523,265.469z M290.718,265.169l1.08-0.386
							c0.027,0.076,0.054,0.153,0.079,0.23l-1.088,0.362C290.766,265.305,290.743,265.237,290.718,265.169z M272.745,264.772
							c0.027-0.076,0.056-0.152,0.085-0.228l1.07,0.412c-0.026,0.068-0.051,0.136-0.076,0.204L272.745,264.772z M290.479,264.57
							l1.049-0.465c0.033,0.074,0.065,0.149,0.096,0.224l-1.061,0.437C290.536,264.701,290.508,264.636,290.479,264.57z
							 M273.018,264.092c0.033-0.075,0.067-0.149,0.103-0.223l1.036,0.492c-0.031,0.065-0.061,0.13-0.09,0.196L273.018,264.092z
							 M290.197,263.989l1.012-0.538c0.038,0.072,0.075,0.144,0.112,0.216l-1.025,0.514
							C290.263,264.116,290.23,264.052,290.197,263.989z M273.338,263.435c0.039-0.072,0.078-0.144,0.118-0.215l0.998,0.566
							c-0.035,0.062-0.07,0.125-0.104,0.188L273.338,263.435z M289.872,263.428l0.972-0.609c0.043,0.068,0.085,0.137,0.126,0.207
							l-0.986,0.587C289.948,263.551,289.911,263.489,289.872,263.428z M273.707,262.801c0.043-0.068,0.087-0.136,0.132-0.203
							l0.956,0.634c-0.04,0.06-0.079,0.121-0.118,0.183L273.707,262.801z M289.509,262.894l0.925-0.678
							c0.048,0.066,0.096,0.132,0.142,0.199l-0.943,0.653C289.593,263.009,289.551,262.951,289.509,262.894z M274.118,262.198
							c0.048-0.066,0.097-0.13,0.147-0.195l0.907,0.702c-0.044,0.057-0.088,0.115-0.13,0.172L274.118,262.198z M289.107,262.385
							l0.875-0.742c0.052,0.062,0.104,0.124,0.155,0.187l-0.891,0.722C289.2,262.495,289.154,262.44,289.107,262.385z
							 M274.572,261.625c0.052-0.062,0.106-0.123,0.16-0.183l0.855,0.765c-0.048,0.053-0.095,0.108-0.142,0.163L274.572,261.625z
							 M288.671,261.906l0.819-0.803c0.056,0.058,0.112,0.116,0.167,0.175l-0.837,0.785
							C288.771,262.01,288.721,261.958,288.671,261.906z M275.066,261.087c0.057-0.058,0.115-0.115,0.173-0.171l0.797,0.824
							c-0.052,0.05-0.103,0.101-0.154,0.152L275.066,261.087z M288.2,261.46l0.76-0.859c0.061,0.054,0.121,0.108,0.18,0.163
							l-0.779,0.841C288.308,261.557,288.254,261.508,288.2,261.46z M275.597,260.585c0.061-0.053,0.122-0.106,0.184-0.158
							l0.737,0.878c-0.056,0.047-0.111,0.094-0.165,0.141L275.597,260.585z M287.7,261.049l0.696-0.912
							c0.065,0.05,0.129,0.1,0.193,0.151l-0.719,0.894C287.813,261.137,287.757,261.093,287.7,261.049z M276.162,260.124
							c0.065-0.049,0.13-0.098,0.196-0.145l0.67,0.931c-0.058,0.042-0.115,0.085-0.172,0.128L276.162,260.124z M287.17,260.674
							l0.629-0.959c0.068,0.045,0.135,0.09,0.202,0.136l-0.651,0.944C287.29,260.754,287.231,260.714,287.17,260.674z
							 M276.758,259.704c0.068-0.044,0.136-0.088,0.205-0.13l0.603,0.975c-0.061,0.038-0.122,0.076-0.182,0.116L276.758,259.704z
							 M286.616,260.339l0.557-1.003c0.072,0.04,0.142,0.08,0.213,0.122l-0.583,0.988
							C286.741,260.41,286.679,260.374,286.616,260.339z M277.383,259.327c0.071-0.039,0.142-0.078,0.215-0.116l0.53,1.017
							c-0.064,0.033-0.127,0.067-0.189,0.102L277.383,259.327z M286.038,260.044l0.483-1.04c0.074,0.034,0.147,0.069,0.221,0.106
							l-0.509,1.028C286.168,260.106,286.103,260.074,286.038,260.044z M278.033,258.997c0.074-0.034,0.147-0.067,0.222-0.099
							l0.456,1.052c-0.066,0.029-0.131,0.058-0.196,0.088L278.033,258.997z M285.44,259.792l0.406-1.073
							c0.077,0.029,0.153,0.059,0.228,0.09l-0.434,1.062C285.574,259.844,285.507,259.818,285.44,259.792z M278.705,258.715
							c0.076-0.028,0.151-0.056,0.228-0.083l0.381,1.082c-0.068,0.024-0.137,0.049-0.204,0.074L278.705,258.715z M284.825,259.585
							l0.327-1.099c0.078,0.023,0.156,0.047,0.233,0.073l-0.353,1.091C284.963,259.627,284.894,259.605,284.825,259.585z
							 M279.398,258.482c0.078-0.023,0.156-0.045,0.234-0.066l0.299,1.107c-0.07,0.019-0.139,0.038-0.208,0.059L279.398,258.482z
							 M284.198,259.422l0.246-1.12c0.08,0.017,0.159,0.036,0.238,0.055l-0.273,1.114
							C284.339,259.454,284.269,259.438,284.198,259.422z M280.105,258.3c0.079-0.017,0.159-0.034,0.239-0.049l0.218,1.126
							c-0.07,0.014-0.141,0.028-0.211,0.043L280.105,258.3z M283.562,259.306l0.164-1.135c0.081,0.012,0.161,0.024,0.242,0.038
							l-0.194,1.131C283.703,259.328,283.633,259.317,283.562,259.306z M280.824,258.17c0.08-0.012,0.161-0.022,0.241-0.032
							l0.136,1.139c-0.072,0.008-0.143,0.018-0.214,0.028L280.824,258.17z M282.918,259.237l0.082-1.144
							c0.081,0.006,0.162,0.013,0.243,0.02l-0.109,1.142C283.062,259.248,282.99,259.242,282.918,259.237z M281.551,258.092
							c0.081-0.006,0.161-0.01,0.243-0.014l0.053,1.146c-0.072,0.003-0.144,0.008-0.216,0.013L281.551,258.092z M282.27,259.214
							v-1.147c0.081,0,0.162,0.001,0.243,0.003l-0.027,1.147C282.414,259.215,282.342,259.214,282.27,259.214z"/>
					</g>
					<g>
						<path style="fill:#FFFFFF;" d="M270.907,269.321c0.271,2.726,1.505,5.172,3.355,6.994l-0.648,0.648
							c-2.017-1.988-3.353-4.664-3.626-7.642H270.907z"/>
						<path style="fill:#FFFFFF;" d="M293.632,269.321h0.92c-0.274,2.979-1.61,5.654-3.626,7.642l-0.648-0.648
							C292.128,274.492,293.361,272.047,293.632,269.321z"/>
						<path style="fill:#FFFFFF;" d="M273.572,260.797c-1.695,1.993-2.721,4.572-2.721,7.387c0,0.1,0.005,0.198,0.008,0.297h-0.918
							c-0.002-0.099-0.008-0.198-0.008-0.297c0-3.068,1.129-5.876,2.989-8.037L273.572,260.797z"/>
						<path style="fill:#FFFFFF;" d="M282.69,279.592c2.651-0.097,5.074-1.1,6.967-2.711l0.65,0.65
							c-2.061,1.775-4.713,2.88-7.617,2.978V279.592z"/>
						<path style="fill:#FFFFFF;" d="M290.401,260.176c-1.981-2.011-4.699-3.291-7.711-3.401v-0.918
							c3.265,0.11,6.213,1.493,8.359,3.67L290.401,260.176z"/>
						<path style="fill:#FFFFFF;" d="M293.682,268.481c0.002-0.099,0.008-0.198,0.008-0.297c0-2.815-1.026-5.394-2.721-7.387
							l0.65-0.65c1.86,2.161,2.989,4.968,2.989,8.037c0,0.1-0.005,0.198-0.008,0.297H293.682z"/>
						<path style="fill:#FFFFFF;" d="M281.85,256.775c-3.013,0.109-5.731,1.39-7.711,3.401l-0.648-0.649
							c2.147-2.177,5.094-3.56,8.36-3.67V256.775z"/>
						<path style="fill:#FFFFFF;" d="M274.883,276.882c1.893,1.61,4.316,2.614,6.967,2.711v0.917
							c-2.904-0.098-5.555-1.203-7.617-2.978L274.883,276.882z"/>
					</g>
					<path style="fill:#FFFFFF;" d="M276.84,268.184c0,2.994,2.436,5.43,5.43,5.43c2.994,0,5.43-2.436,5.43-5.43
						c0-2.994-2.436-5.43-5.43-5.43C279.276,262.753,276.84,265.189,276.84,268.184z"/>
				</g>
				<path style="fill:#FFFFFF;" d="M226.417,291.77h-24.821c-1.158,0-2.097-0.939-2.097-2.096V273.78
					c0-1.158,0.939-2.096,2.097-2.096h24.821c1.158,0,2.096,0.939,2.096,2.096v15.893
					C228.513,290.831,227.575,291.77,226.417,291.77z"/>
				<path style="fill:#FFFFFF;" d="M226.417,311.629h-24.821c-1.158,0-2.097-0.939-2.097-2.096v-12.245
					c0-1.158,0.939-2.096,2.097-2.096h24.821c1.158,0,2.096,0.939,2.096,2.096v12.245
					C228.513,310.691,227.575,311.629,226.417,311.629z"/>
				<g>
					<g>
						<g>
							<path style="fill:#8BF6F1;" d="M245.605,257.357h-45.309c-0.44,0-0.797-0.357-0.797-0.797v0c0-0.44,0.357-0.797,0.797-0.797
								h45.309c0.44,0,0.797,0.357,0.797,0.797v0C246.402,257,246.045,257.357,245.605,257.357z"/>
						</g>
						<g>
							<path style="fill:#FFFFFF;" d="M245.605,257.357h-14.898c-0.44,0-0.797-0.357-0.797-0.797v0c0-0.44,0.357-0.797,0.797-0.797
								h14.898c0.44,0,0.797,0.357,0.797,0.797v0C246.402,257,246.045,257.357,245.605,257.357z"/>
						</g>
					</g>
					<g>
						<g>
							<path style="fill:#8BF6F1;" d="M245.605,261.64h-45.309c-0.44,0-0.797-0.357-0.797-0.797l0,0c0-0.44,0.357-0.797,0.797-0.797
								h45.309c0.44,0,0.797,0.357,0.797,0.797l0,0C246.402,261.283,246.045,261.64,245.605,261.64z"/>
						</g>
						<g>
							<path style="fill:#FFFFFF;" d="M245.605,261.64h-5.939c-0.44,0-0.797-0.357-0.797-0.797l0,0c0-0.44,0.357-0.797,0.797-0.797
								h5.939c0.44,0,0.797,0.357,0.797,0.797l0,0C246.402,261.283,246.045,261.64,245.605,261.64z"/>
						</g>
					</g>
					<g>
						<g>
							<path style="fill:#8BF6F1;" d="M245.605,265.923h-45.309c-0.44,0-0.797-0.357-0.797-0.797v0c0-0.44,0.357-0.797,0.797-0.797
								h45.309c0.44,0,0.797,0.357,0.797,0.797v0C246.402,265.566,246.045,265.923,245.605,265.923z"/>
						</g>
						<g>
							<path style="fill:#FFFFFF;" d="M245.605,265.923h-30.58c-0.44,0-0.797-0.357-0.797-0.797v0c0-0.44,0.357-0.797,0.797-0.797
								h30.58c0.44,0,0.797,0.357,0.797,0.797v0C246.402,265.566,246.045,265.923,245.605,265.923z"/>
						</g>
					</g>
				</g>
				<g>
					<path style="fill:#8BF6F1;" d="M239.383,289.465h25.778c0.44,0,0.797,0.357,0.797,0.797v0.711c0,0.44-0.357,0.797-0.797,0.797
						h-25.778c-0.44,0-0.797-0.357-0.797-0.797v-0.711C238.586,289.821,238.943,289.465,239.383,289.465z"/>
					<path style="fill:#8BF6F1;" d="M239.383,284.334h25.778c0.44,0,0.797,0.357,0.797,0.797v0.711c0,0.44-0.357,0.797-0.797,0.797
						h-25.778c-0.44,0-0.797-0.357-0.797-0.797v-0.711C238.586,284.691,238.943,284.334,239.383,284.334z"/>
					<path style="fill:#8BF6F1;" d="M239.383,279.203h25.778c0.44,0,0.797,0.357,0.797,0.797v0.711c0,0.44-0.357,0.797-0.797,0.797
						h-25.778c-0.44,0-0.797-0.357-0.797-0.797V280C238.586,279.56,238.943,279.203,239.383,279.203z"/>
				</g>
			</g>
		</g>
		<g>
			<path style="fill:#FFFFFF;" d="M292.935,431.63h30.75c0,0,1.719-5.476-2.006-12.259c0,0-2.475,1.985-9.889,0.642
				c0,0-3.094,2.627-5.231,3.654C304.411,424.706,292.106,427.123,292.935,431.63z"/>
			<path style="fill:#3A66B4;" d="M295.079,344.924c1.986,11.851,11.15,51.944,15.09,75.629c7.2,0.613,10.658-0.213,12.491-0.635
				c-0.359-8.259-1.069-28.015-0.986-36.679c0.137-14.642,0.824-33.951-5.622-44.547l-21.673,1.706
				c0.132,1.144,0.252,2.075,0.358,2.74C294.841,343.776,294.96,344.366,295.079,344.924z"/>
			<path style="fill:#FFFFFF;" d="M237.315,431.63h30.75c0,0,1.719-5.476-2.006-12.259c0,0-2.475,1.985-9.889,0.642
				c0,0-3.094,2.627-5.231,3.654C248.792,424.706,236.487,427.123,237.315,431.63z"/>
			<path style="fill:#264C91;" d="M255.279,419.861c5.876,1.454,10.132,1.313,12.147,1.086c1.636-9.52,4.218-30.468,6.542-40.286
				c3.607-15.262,7.136-36.251,4.684-43.739l-21.32-5.354C257.262,332.241,255.526,396.478,255.279,419.861z"/>
			<path style="fill:#264C91;" d="M340.131,309.713L340.131,309.713c-0.429-4.213-0.921-7.291-0.921-7.291l-23.819,5.83
				l-20.233,4.61c-7.501,1.671-16.562,3.683-24.551,5.488c-8.965,2.037-14.916,8.846-12.952,17.822l2.247,10.888
				c12.538-0.171,71.487-5.822,76.528-8.368C342.125,335.815,343.84,325.644,340.131,309.713z"/>
			<path style="fill:#3A66B4;" d="M375.688,309.713L375.688,309.713c-0.428-4.213-2.483-8.734-2.483-8.734l-22.258,7.273
				l-20.234,4.61c-7.501,1.671-16.563,3.683-24.551,5.488c-8.964,2.037-14.915,8.846-12.952,17.822l2.247,10.888
				c12.538-0.171,64.942-1.997,76.528-8.368C377.578,335.617,379.397,325.644,375.688,309.713z"/>
			<g>
				<path style="fill:#E5918F;" d="M309.018,275.575c0,0,10.58-4.779,13.491,0.014c1.594,2.624,0.492,7.498-3.117,9.544
					c-3.608,2.046-23.998,10.67-43.243,15.478c0,0-0.822-2.677-2.147-5.49c0,0,8.633-3.581,17.216-9.609
					C299.802,279.485,309.018,275.575,309.018,275.575L309.018,275.575z"/>
			</g>
			<path style="fill:#E5918F;" d="M311.663,242.538l-9.068,36.215c0,0,0.937,9.156,10.184,4.662
				c9.247-4.494,15.374-33.346,15.374-33.346L311.663,242.538z"/>
			<path style="fill:#FFFFFF;" d="M327.003,262.793c-1.122-0.271-2.193-0.567-3.224-0.877c-1.058-0.31-2.064-0.632-3.018-0.967
				c-8.616-2.954-13.272-6.501-13.272-6.501c2.708-11.776,5.972-19.682,8.874-24.893c0.077-0.129,0.155-0.245,0.219-0.387
				c0.077-0.129,0.155-0.258,0.232-0.387c1.561-2.593,3.805-4.772,6.307-6.565c0.258-0.181,0.503-0.348,0.761-0.529l1.071,18.908
				l0.181,1.948L327.003,262.793z"/>
			<path style="fill:#9FBBC7;" d="M327.003,262.793c-1.122-0.271-2.193-0.567-3.224-0.877c-1.058-0.31-2.064-0.632-3.018-0.967
				c1.809-12.737,3.444-20.74,3.444-20.74l0.929,2.335L327.003,262.793z"/>
			<path style="fill:#FFFFFF;" d="M380.53,230.096c-0.219,5.598-1.199,14.588-2.051,23.616c-0.271,2.863-0.529,5.74-0.748,8.513
				c-0.155,1.728-2.76,10.95-2.863,12.601c-0.464,7.893-4.334,13.801-0.671,25.822c0.877,2.876,1.096,4.359,1.096,5.546
				c0,0.826-1.07,1.69-1.496,1.922c-1.535,0.89-4.553,1.509-8.216,1.961h-0.013c-7.21,0.877-16.935,1.045-22.804,1.045
				c-7.881,0-19.708-1.251-21.204-3.237c-1.367-1.819-0.103-4.463,0.542-8.113c2.902-16.471,1.87-25.061,1.69-36.952
				c0-0.297-0.013-0.593-0.013-0.903c-0.297-18.341-1.509-34.038-0.658-39.7c0.258-0.181,0.503-0.348,0.761-0.529
				c1.251-0.851,2.476-1.612,3.663-2.283c0.103-0.052,0.232-0.129,0.361-0.206c0.361-0.206,0.735-0.4,1.083-0.593
				c0.129-0.077,0.271-0.142,0.413-0.206c2.67-1.303,6.565-2.696,8.796-3.469c0.284-0.09,0.542-0.181,0.761-0.245
				c2.102-0.129,4.385-0.155,6.849-0.09c2.141,0.064,5.417,0.348,8.977,0.813c0.013,0,0.013,0,0.013,0
				c4.024,0.516,8.422,1.277,11.918,2.231c0,0,0.039,0.013,0.064,0.026c0.658,0.206,4.927,1.806,9.377,6.565
				C377.641,225.802,379.162,227.736,380.53,230.096z"/>
			<path style="fill:#9FBBC7;" d="M374.197,300.648c0.877,2.876,1.096,4.359,1.096,5.546c0,0.826-1.07,1.69-1.496,1.922
				c-1.535,0.89-4.553,1.509-8.216,1.961c1.509-0.181,4.114-2.575,4.114-4.734c0-1.512-1.96-11.724-1.419-18.315
				c0.542-6.578,1.612-17.051-0.426-25.435c-2.051-8.384-3.973-19.411-3.973-19.411l11.492,6.939c0,0,1.483,2.077,3.108,4.592
				c-0.271,2.863-0.529,5.74-0.748,8.513C377.576,263.954,370.534,288.627,374.197,300.648z"/>
			<g>
				<path style="fill:#3A66B4;" d="M323.64,181.624c0,0,0.995,12.019,4.98,12.827c3.985,0.807,3.007-4.3,3.007-4.3l-0.557-5.707
					L323.64,181.624z"/>
				<path style="fill:#E5918F;" d="M342.017,225.182c-7.803-0.929-4.888-8.513-3.818-10.254c0.284-0.09,1.625-0.503,1.728-0.568
					c0.013-0.013,0.026-0.013,0.026-0.013c0.258-0.206,0.452-0.516,0.606-0.903c0.761-1.999,0.413-5.985,0.387-6.243
					c0-0.013,0-0.013,0-0.013v-0.722c0.129-0.477,0.258-0.929,0.361-1.354l4.102-3.225l8.68-6.823c0,0-2.309,11.415-0.451,18.612
					c0.142,0.542,0.426,1.303,1.148,1.729c0,0.013,0.013,0,0.013,0c0.232,0.155,0.516,0.258,0.864,0.309
					C357.791,216.721,354.824,226.704,342.017,225.182z"/>
				<path style="fill:#CC6362;" d="M348.894,202.32c0,0-0.073,7.618-8.341,11.121c0.768-1.988,0.415-5.976,0.39-6.232l3.464-2.72
					L348.894,202.32z"/>
				<path style="fill:#E5918F;" d="M325.545,183.334c0,0,1.804,24.938,8.537,27.057c0,0,8.579,0.808,14.739-7.478
					c1.775-2.387,4.017-2.924,4.75-5.806c1.19-4.682,2.868-13.319,0.727-18.524C351.249,171.171,325.834,165.285,325.545,183.334z"
					/>
				<path style="fill:#3A66B4;" d="M354.401,174.468c-0.111-4.53-4.696-6.223-4.696-6.223c-4.564-2.136-14.051-1.215-23.831,0.967
					c-2.293,0.512-5.17-0.896-6.771,0.215c-1.935,1.342-0.008,7.477-0.008,7.477c3.772,11.424,17.654,7.709,21.826,6.3
					c0.991,2.941,0.864,7.031,3.337,9.14c1.409,1.202,3.859,1.236,6.349,0.821c0.307,0.583,1.458,1.096,1.692,1.896
					c0.785,2.671,0.672,6.846,0.648,10.069l1.177-0.575C354.278,203.682,366.453,174.841,354.401,174.468z"/>
				<g>
					<path style="fill:none;stroke:#FFFFFF;stroke-width:0.501;stroke-miterlimit:10;" d="M332.452,191.733
						c0.352,2.071-0.669,3.972-2.281,4.246c-1.612,0.274-3.204-1.182-3.557-3.253c-0.352-2.071,0.669-3.972,2.281-4.246
						C330.507,188.205,332.1,189.662,332.452,191.733z"/>
					<path style="fill:none;stroke:#FFFFFF;stroke-width:0.501;stroke-miterlimit:10;" d="M340.589,190.213
						c0.352,2.071-0.669,3.972-2.281,4.246c-1.612,0.274-3.204-1.182-3.557-3.253c-0.352-2.071,0.669-3.972,2.281-4.246
						C338.644,186.685,340.237,188.142,340.589,190.213z"/>
					<path style="fill:none;stroke:#FFFFFF;stroke-width:0.501;stroke-miterlimit:10;" d="M332.452,191.733
						c0,0,0.356-0.579,2.23-0.417"/>
					
						<line style="fill:none;stroke:#FFFFFF;stroke-width:0.501;stroke-miterlimit:10;" x1="340.659" y1="190.709" x2="347.614" y2="189.598"/>
				</g>
				<g>
					<path style="fill:#E5918F;" d="M348.126,198.426c4.79,1.835,6.286-9.954,1.737-10.477c-3.449-0.396-3.591,4.416-3.591,4.416
						S345.391,197.378,348.126,198.426z"/>
				</g>
				<g style="opacity:0.5;">
					<g>
						<path style="fill:#CC6362;" d="M349.705,189.727c-0.787,0.839-1.148,1.82-1.235,2.85c-0.068,0.515-0.01,1.044,0.017,1.583
							l0.204,1.661c-0.169-0.234-0.296-0.49-0.446-0.741c-0.115-0.263-0.222-0.534-0.313-0.811
							c-0.148-0.563-0.246-1.155-0.183-1.758c0.061-0.596,0.238-1.199,0.582-1.701C348.662,190.305,349.149,189.899,349.705,189.727
							z"/>
					</g>
					<g>
						<path style="fill:#CC6362;" d="M350.453,191.965c-0.511,0.074-0.987,0.302-1.33,0.637c-0.349,0.331-0.555,0.764-0.655,1.212
							l-0.682-0.244c0.251-0.516,0.637-0.98,1.122-1.259C349.387,192.026,349.937,191.918,350.453,191.965z"/>
					</g>
				</g>
			</g>
			<path style="fill:#E5918F;" d="M394.177,280.348c0,0,0,0-0.001,0.012c-2.105,2.443-10.094,4.223-13.938,0.844
				c-1.207-1.076-2.571-3.912-3.911-7.431c-3.408-8.996-6.633-22.455-6.633-22.455l17.877-9.135c0,0,2.3,10.312,4.281,20.112
				c0,0,0.018,0.099,0.054,0.273c0.645,3.139,1.245,6.226,1.717,8.876c0.019,0.075,0.027,0.136,0.034,0.21
				C394.13,274.818,394.434,278.116,394.177,280.348z"/>
			<path style="fill:#FFFFFF;" d="M362.943,238.797c1.727,7.179,7.152,20.783,7.152,20.783c3.801,0.631,8.897-0.07,13.121-1.587
				c4.875-1.751,8.357-5.428,8.357-5.428s-3.598-10.114-6.828-17.381c-2.899-6.523-4.64-8.958-5.895-10.251
				c-1.889-1.978-4.937-4.247-7.098-5.279L362.943,238.797z"/>
			<path style="fill:#FFFFFF;" d="M385.55,243.486l-10.491-4.526l-8.266-21.298c0,0,1.515,0.46,3.51,1.266c0,0,0,0,0.009,0
				c0.039,0.019,0.125,0.048,0.269,0.105c0.048,0.019,0.105,0.038,0.153,0.067c1.784,0.834,8.698,4.91,13.483,19.716
				c0.038,0.125,0.077,0.249,0.115,0.374c0.508,1.707,0.882,3.078,1.084,3.788c0.019,0.067,0.038,0.134,0.057,0.211
				C385.502,243.284,385.521,243.39,385.55,243.486z"/>
			<g>
				<path style="fill:#E5918F;" d="M394.177,280.348c0,0,0,0-0.001,0.012c-0.154,1.309-0.514,2.25-1.162,2.583
					c-0.103,0.066-1.571,0.94-1.673,1.006c-2.186,1.336-6.15,3.61-11.081,5.73c-11.958,5.166-29.33,11.158-38.696,13.904
					c0,0-0.925-2.646-2.367-5.401c0,0,8.472-3.934,16.799-10.312c8.339-6.365,20.332-14.096,20.332-14.096l3.029-3.563
					c0,0,10.767-9.909,12.496-7.916c0,0,0.018,0.099,0.054,0.273c0.257,1.033,1.111,4.835,1.717,8.876
					c0.019,0.075,0.027,0.136,0.034,0.21C394.13,274.818,394.434,278.116,394.177,280.348z"/>
				<path style="fill:#E5918F;" d="M340.436,297.577c0,0-2.105,1.268-4.25,0.817c-1.187-0.249-1.665-0.735-2.543-0.889
					c-0.878-0.154-3.214-0.443-4.371-1.01c-1.157-0.567-1.608-0.631-1.568,0.531c0.041,1.162,2.323,2.166,2.942,2.488
					c0.619,0.322,1.395,1.352,1.479,1.481c0.084,0.129-3.804,2.164-4.85,1.751c0,0-0.311,0.936-0.134,1.459
					c0.177,0.523,0.977,0.706,1.039,0.968c0.062,0.262-0.183,0.8-0.01,1.217c0.173,0.417,0.887,0.418,1.175,1.096
					c0.288,0.677-0.029,0.688,0.181,1.395c0.21,0.707,1.113,0.834,1.284,1.198s0.081,0.79,0.459,1.042
					c0.379,0.251,3.876-0.871,5.152-1.418c1.276-0.547,4.687-5.457,8.462-7.131L340.436,297.577z"/>
			</g>
			<path style="fill:#5BD4CE;" d="M358.306,319.495h-27.195v-2.661h27.195c0.735,0,1.33,0.596,1.33,1.331l0,0
				C359.637,318.899,359.041,319.495,358.306,319.495z"/>
			<path style="fill:#5BD4CE;" d="M343.591,319.495h-68.092c-0.815,0-1.531-0.544-1.749-1.329l-13.936-50.169
				c-0.308-1.11,0.527-2.209,1.679-2.209h65.847c1.534,0,2.88,1.023,3.291,2.501l13.887,49.989
				C344.687,318.889,344.227,319.495,343.591,319.495z"/>
			<path style="fill:#8BF6F1;" d="M341.127,319.495h-68.092c-0.815,0-1.531-0.544-1.749-1.329l-13.937-50.169
				c-0.308-1.11,0.527-2.209,1.679-2.209h65.847c1.534,0,2.88,1.023,3.291,2.501l13.886,49.989
				C342.223,318.889,341.762,319.495,341.127,319.495z"/>
		</g>
	</g>
</g>
</svg>
