<?xml version="1.0" encoding="iso-8859-1"?>
<!-- Generator: Adobe Illustrator 19.0.0, SVG Export Plug-In . SVG Version: 6.00 Build 0)  -->
<svg xmlns="http://www.w3.org/2000/svg" xmlns:xlink="http://www.w3.org/1999/xlink" version="1.1" id="Layer_1" x="0px" y="0px" viewBox="0 0 512 512" style="enable-background:new 0 0 512 512;" xml:space="preserve">
<path style="fill:#5B5D6E;" d="M461.228,80.701H50.772c-14.168,0-25.653,11.485-25.653,25.653v282.188h461.762V106.355  C486.881,92.187,475.396,80.701,461.228,80.701z"/>
<rect x="59.324" y="114.906" style="fill:#00C3FF;" width="393.353" height="239.432"/>
<path style="fill:#E4EAF8;" d="M486.881,431.299H25.119c-9.446,0-17.102-7.656-17.102-17.102v-25.653h495.967v25.653  C503.983,423.642,496.327,431.299,486.881,431.299z"/>
<path d="M384.267,122.923h17.102c4.428,0,8.017-3.589,8.017-8.017c0-4.427-3.588-8.017-8.017-8.017h-17.102  c-4.428,0-8.017,3.589-8.017,8.017C376.251,119.333,379.839,122.923,384.267,122.923z"/>
<path d="M59.324,311.048c4.428,0,8.017-3.589,8.017-8.017V122.923h282.722c4.428,0,8.017-3.589,8.017-8.017  c0-4.427-3.588-8.017-8.017-8.017H59.324c-4.428,0-8.017,3.589-8.017,8.017v188.125C51.307,307.459,54.895,311.048,59.324,311.048z"/>
<path d="M452.676,106.889h-17.102c-4.428,0-8.017,3.589-8.017,8.017c0,4.427,3.588,8.017,8.017,8.017h9.086v223.399H67.34v-9.086  c0-4.427-3.588-8.017-8.017-8.017s-8.017,3.589-8.017,8.017v17.102c0,4.427,3.588,8.017,8.017,8.017h393.353  c4.428,0,8.017-3.589,8.017-8.017V114.906C460.693,110.479,457.105,106.889,452.676,106.889z"/>
<path d="M503.983,380.526h-9.086V106.355c0-18.566-15.105-33.67-33.67-33.67H50.772c-18.566,0-33.67,15.105-33.67,33.67v274.171  H8.017c-4.428,0-8.017,3.589-8.017,8.017v25.653c0,13.851,11.268,25.119,25.119,25.119h461.762  c13.851,0,25.119-11.268,25.119-25.119v-25.653C512,384.115,508.412,380.526,503.983,380.526z M33.136,106.355  c0-9.725,7.912-17.637,17.637-17.637h410.455c9.725,0,17.637,7.912,17.637,17.637v274.171H33.136V106.355z M495.967,414.196  c0,5.01-4.076,9.086-9.086,9.086H25.119c-5.01,0-9.086-4.076-9.086-9.086V396.56h197.772c-0.012,0.177-0.027,0.354-0.027,0.534  c0,4.427,3.588,8.017,8.017,8.017h68.409c4.428,0,8.017-3.589,8.017-8.017c0-0.181-0.015-0.357-0.027-0.534h197.772V414.196z"/>
<path d="M170.489,276.843c4.428,0,8.017-3.589,8.017-8.017v-68.409c0-4.427-3.588-8.017-8.017-8.017  c-4.428,0-8.017,3.589-8.017,8.017v26.188h-43.825v-26.188c0-4.427-3.588-8.017-8.017-8.017c-4.428,0-8.017,3.589-8.017,8.017  v68.409c0,4.427,3.588,8.017,8.017,8.017c4.428,0,8.017-3.589,8.017-8.017v-26.188h43.825v26.188  C162.472,273.254,166.06,276.843,170.489,276.843z"/>
<path d="M332.96,276.843c4.428,0,8.017-3.589,8.017-8.017v-68.409c0-3.719-2.557-6.948-6.174-7.802  c-3.624-0.855-7.35,0.891-9.013,4.217l-22.759,45.517l-22.759-45.517c-1.663-3.325-5.388-5.072-9.013-4.217  c-3.617,0.854-6.174,4.083-6.174,7.802v68.409c0,4.427,3.588,8.017,8.017,8.017s8.017-3.589,8.017-8.017v-34.449l10.467,20.932  c1.359,2.716,4.133,4.432,7.17,4.432h8.551c3.037,0,5.813-1.716,7.17-4.432l10.467-20.932v34.449  C324.944,273.254,328.532,276.843,332.96,276.843z"/>
<path d="M221.795,276.843c4.428,0,8.017-3.589,8.017-8.017v-60.392h17.637c4.428,0,8.017-3.589,8.017-8.017  s-3.588-8.017-8.017-8.017h-51.307c-4.428,0-8.017,3.589-8.017,8.017s3.588,8.017,8.017,8.017h17.637v60.392  C213.779,273.254,217.367,276.843,221.795,276.843z"/>
<path d="M367.165,276.843h42.756c4.428,0,8.017-3.589,8.017-8.017c0-4.427-3.588-8.017-8.017-8.017h-34.739v-60.392  c0-4.427-3.588-8.017-8.017-8.017c-4.428,0-8.017,3.589-8.017,8.017v68.409C359.148,273.254,362.737,276.843,367.165,276.843z"/>
<g>
</g>
<g>
</g>
<g>
</g>
<g>
</g>
<g>
</g>
<g>
</g>
<g>
</g>
<g>
</g>
<g>
</g>
<g>
</g>
<g>
</g>
<g>
</g>
<g>
</g>
<g>
</g>
<g>
</g>
</svg>
