<svg xmlns="http://www.w3.org/2000/svg" height="2" width="2" viewBox="0 0 48 48"><defs><style>.cls-1{fill:#424242;}.cls-2{fill:#42a5f5;}</style></defs><title>Computer Network</title><g id="Computer_Network" data-name="Computer Network"><path class="cls-1" d="M42,3a3,3,0,0,0-3-3H9A3,3,0,0,0,6,3V9a3,3,0,0,0,.78,2A3,3,0,0,0,6,13v6a3,3,0,0,0,3,3H23v2.28a1.91,1.91,0,0,0-.72.72H11a1,1,0,0,0-1,1v4h2V27H22.28a2,2,0,0,0,3.44,0H36v3h2V26a1,1,0,0,0-1-1H25.72a1.91,1.91,0,0,0-.72-.72V22H39a3,3,0,0,0,3-3V13a3,3,0,0,0-.78-2A3,3,0,0,0,42,9ZM40,19a1,1,0,0,1-1,1H9a1,1,0,0,1-1-1V13a1,1,0,0,1,1-1H39a1,1,0,0,1,1,1ZM40,9a1,1,0,0,1-1,1H9A1,1,0,0,1,8,9V3A1,1,0,0,1,9,2H39a1,1,0,0,1,1,1Z"/><rect class="cls-2" x="10" y="4" width="4" height="4" rx="1"/><rect class="cls-2" x="16" y="4" width="4" height="4" rx="1"/><path class="cls-2" d="M37,8a1,1,0,0,0,1-1V5a1,1,0,0,0-2,0V7A1,1,0,0,0,37,8Z"/><path class="cls-2" d="M33,8a1,1,0,0,0,1-1V5a1,1,0,0,0-2,0V7A1,1,0,0,0,33,8Z"/><path class="cls-2" d="M29,8a1,1,0,0,0,1-1V5a1,1,0,0,0-2,0V7A1,1,0,0,0,29,8Z"/><rect class="cls-2" x="10" y="14" width="4" height="4" rx="1"/><rect class="cls-2" x="16" y="14" width="4" height="4" rx="1"/><path class="cls-2" d="M37,14a1,1,0,0,0-1,1v2a1,1,0,0,0,2,0V15A1,1,0,0,0,37,14Z"/><path class="cls-2" d="M33,14a1,1,0,0,0-1,1v2a1,1,0,0,0,2,0V15A1,1,0,0,0,33,14Z"/><path class="cls-2" d="M29,14a1,1,0,0,0-1,1v2a1,1,0,0,0,2,0V15A1,1,0,0,0,29,14Z"/><path class="cls-2" d="M20,44V34a2,2,0,0,0-2-2H4a2,2,0,0,0-2,2V44H0v2a2,2,0,0,0,2,2H20a2,2,0,0,0,2-2V44ZM4,44V34H18V44Z"/><path class="cls-2" d="M46,44V34a2,2,0,0,0-2-2H30a2,2,0,0,0-2,2V44H26v2a2,2,0,0,0,2,2H46a2,2,0,0,0,2-2V44ZM30,44V34H44V44Z"/></g></svg>